G75*
%MOIN*%
%OFA0B0*%
%FSLAX24Y24*%
%IPPOS*%
%LPD*%
%AMOC8*
5,1,8,0,0,1.08239X$1,22.5*
%
%ADD10R,0.0866X0.0236*%
%ADD11R,0.2126X0.2441*%
%ADD12R,0.0394X0.0630*%
%ADD13R,0.0591X0.0512*%
%ADD14R,0.0512X0.0591*%
%ADD15C,0.0600*%
%ADD16OC8,0.0520*%
%ADD17R,0.0256X0.0354*%
%ADD18C,0.0320*%
%ADD19R,0.0396X0.0396*%
%ADD20C,0.0160*%
D10*
X010476Y004430D03*
X010476Y004930D03*
X010476Y005430D03*
X010476Y005930D03*
X012524Y005930D03*
X012524Y005430D03*
X012524Y004930D03*
X012524Y004430D03*
D11*
X008000Y006164D03*
D12*
X007102Y003290D03*
X008898Y003290D03*
D13*
X014500Y003554D03*
X014500Y002806D03*
X014500Y004806D03*
X014500Y005554D03*
X016000Y005806D03*
X017500Y005806D03*
X017500Y006554D03*
X016000Y006554D03*
D14*
X014374Y006680D03*
X013626Y006680D03*
X015626Y004680D03*
X016374Y004680D03*
D15*
X019700Y004680D02*
X020300Y004680D01*
X020300Y003680D02*
X019700Y003680D01*
X005800Y004180D02*
X005200Y004180D01*
X005200Y005180D02*
X005800Y005180D01*
D16*
X017000Y002680D03*
X017000Y001680D03*
D17*
X017675Y003767D03*
X018325Y003767D03*
X018325Y004593D03*
X017675Y004593D03*
D18*
X007102Y003290D02*
X006500Y003893D01*
X006500Y005180D01*
X005500Y005180D01*
X008898Y003328D02*
X010000Y004430D01*
X010476Y004430D01*
X011250Y004430D01*
X011500Y004680D01*
X011500Y005430D01*
X012000Y005930D01*
X012524Y005930D01*
X012876Y005930D01*
X013626Y006680D01*
X013750Y007180D01*
X014000Y007430D01*
X015250Y007430D01*
X016000Y006680D01*
X016000Y006554D01*
X017500Y006554D01*
X017500Y005806D02*
X017500Y005430D01*
X018000Y005180D02*
X019500Y005180D01*
X020000Y004680D01*
X018500Y004680D02*
X018413Y004593D01*
X018325Y004593D01*
X017675Y004593D02*
X017675Y004855D01*
X018000Y005180D01*
X016374Y004680D02*
X016374Y003306D01*
X017000Y002680D01*
X017675Y002355D02*
X017675Y003767D01*
X015626Y004680D02*
X015250Y004680D01*
X014500Y004806D02*
X014376Y004930D01*
X012524Y004930D01*
X012000Y004930D01*
X011000Y004930D02*
X010476Y004930D01*
X010476Y005430D02*
X011000Y005430D01*
X012524Y005430D02*
X014376Y005430D01*
X014500Y005554D01*
X014374Y005680D01*
X014374Y006680D01*
X013626Y006680D02*
X013500Y006680D01*
X016000Y005806D02*
X016000Y005430D01*
X014500Y004806D02*
X014500Y003554D01*
X014500Y002806D02*
X014500Y002430D01*
X014000Y001680D02*
X017000Y001680D01*
X017675Y002355D01*
X014000Y001680D02*
X011750Y003930D01*
X011750Y004180D01*
X008898Y003328D02*
X008898Y003290D01*
D19*
X011750Y004180D03*
X012000Y004930D03*
X011000Y004930D03*
X011000Y005430D03*
X010000Y005930D03*
X008500Y005680D03*
X007500Y005680D03*
X007500Y006680D03*
X008500Y006680D03*
X015250Y004680D03*
X016000Y005430D03*
X017500Y005430D03*
X018500Y004680D03*
X014500Y002430D03*
D20*
X007500Y005680D02*
X007500Y006164D01*
X008000Y006164D01*
M02*
