G75*
%MOIN*%
%OFA0B0*%
%FSLAX24Y24*%
%IPPOS*%
%LPD*%
%AMOC8*
5,1,8,0,0,1.08239X$1,22.5*
%
%ADD10C,0.0600*%
%ADD11OC8,0.0520*%
%ADD12R,0.0396X0.0396*%
%ADD13C,0.0320*%
%ADD14C,0.0160*%
D10*
X005200Y004180D02*
X005800Y004180D01*
X005800Y005180D02*
X005200Y005180D01*
X019700Y004680D02*
X020300Y004680D01*
X020300Y003680D02*
X019700Y003680D01*
D11*
X017000Y002680D03*
X017000Y001680D03*
D12*
X014500Y002430D03*
X011750Y004180D03*
X012000Y004930D03*
X011000Y004930D03*
X011000Y005430D03*
X010000Y005930D03*
X008500Y005680D03*
X007500Y005680D03*
X007500Y006680D03*
X008500Y006680D03*
X015250Y004680D03*
X016000Y005430D03*
X017500Y005430D03*
X018500Y004680D03*
D13*
X012000Y004930D02*
X011500Y005430D01*
X011000Y005430D01*
X011000Y004930D02*
X011750Y004180D01*
D14*
X003980Y000660D02*
X003980Y008070D01*
X020512Y008070D01*
X020512Y005090D01*
X020391Y005140D01*
X019608Y005140D01*
X019439Y005070D01*
X019310Y004941D01*
X019240Y004771D01*
X019240Y004588D01*
X019310Y004419D01*
X019439Y004290D01*
X019608Y004220D01*
X020391Y004220D01*
X020512Y004270D01*
X020512Y004111D01*
X020484Y004125D01*
X020412Y004148D01*
X020338Y004160D01*
X020020Y004160D01*
X020020Y003700D01*
X019980Y003700D01*
X019980Y004160D01*
X019662Y004160D01*
X019588Y004148D01*
X019516Y004125D01*
X019448Y004091D01*
X019387Y004046D01*
X019334Y003993D01*
X019289Y003932D01*
X019255Y003864D01*
X019232Y003792D01*
X019220Y003718D01*
X019220Y003700D01*
X019980Y003700D01*
X019980Y003660D01*
X020020Y003660D01*
X020020Y003200D01*
X020338Y003200D01*
X020412Y003212D01*
X020484Y003235D01*
X020512Y003249D01*
X020512Y000660D01*
X003980Y000660D01*
X003980Y000814D02*
X020512Y000814D01*
X020512Y000973D02*
X003980Y000973D01*
X003980Y001131D02*
X020512Y001131D01*
X020512Y001290D02*
X017203Y001290D01*
X017174Y001260D02*
X017420Y001506D01*
X017420Y001854D01*
X017174Y002100D01*
X016826Y002100D01*
X016580Y001854D01*
X016580Y001506D01*
X016826Y001260D01*
X017174Y001260D01*
X017362Y001448D02*
X020512Y001448D01*
X020512Y001607D02*
X017420Y001607D01*
X017420Y001765D02*
X020512Y001765D01*
X020512Y001924D02*
X017350Y001924D01*
X017192Y002082D02*
X020512Y002082D01*
X020512Y002241D02*
X003980Y002241D01*
X003980Y002399D02*
X016687Y002399D01*
X016580Y002506D02*
X016826Y002260D01*
X017174Y002260D01*
X017420Y002506D01*
X017420Y002854D01*
X017174Y003100D01*
X016826Y003100D01*
X016580Y002854D01*
X016580Y002506D01*
X016580Y002558D02*
X003980Y002558D01*
X003980Y002716D02*
X016580Y002716D01*
X016601Y002875D02*
X003980Y002875D01*
X003980Y003033D02*
X016759Y003033D01*
X017241Y003033D02*
X020512Y003033D01*
X020512Y002875D02*
X017399Y002875D01*
X017420Y002716D02*
X020512Y002716D01*
X020512Y002558D02*
X017420Y002558D01*
X017313Y002399D02*
X020512Y002399D01*
X020512Y003192D02*
X003980Y003192D01*
X003980Y003350D02*
X019351Y003350D01*
X019334Y003367D02*
X019387Y003314D01*
X019448Y003269D01*
X019516Y003235D01*
X019588Y003212D01*
X019662Y003200D01*
X019980Y003200D01*
X019980Y003660D01*
X019220Y003660D01*
X019220Y003642D01*
X019232Y003568D01*
X019255Y003496D01*
X019289Y003428D01*
X019334Y003367D01*
X019251Y003509D02*
X003980Y003509D01*
X003980Y003667D02*
X019980Y003667D01*
X019980Y003509D02*
X020020Y003509D01*
X020020Y003350D02*
X019980Y003350D01*
X019980Y003826D02*
X020020Y003826D01*
X020020Y003984D02*
X019980Y003984D01*
X019980Y004143D02*
X020020Y004143D01*
X020430Y004143D02*
X020512Y004143D01*
X019570Y004143D02*
X012108Y004143D01*
X012108Y004301D02*
X019428Y004301D01*
X019293Y004460D02*
X012093Y004460D01*
X012108Y004444D02*
X012014Y004538D01*
X011844Y004538D01*
X011811Y004572D01*
X012264Y004572D01*
X012358Y004666D01*
X012358Y005194D01*
X012264Y005288D01*
X012094Y005288D01*
X011681Y005701D01*
X011564Y005750D01*
X011302Y005750D01*
X011264Y005788D01*
X010736Y005788D01*
X010642Y005694D01*
X010642Y004666D01*
X010736Y004572D01*
X010906Y004572D01*
X011392Y004086D01*
X011392Y003916D01*
X011486Y003822D01*
X012014Y003822D01*
X012108Y003916D01*
X012108Y004444D01*
X012311Y004618D02*
X019240Y004618D01*
X019242Y004777D02*
X012358Y004777D01*
X012358Y004935D02*
X019308Y004935D01*
X019496Y005094D02*
X012358Y005094D01*
X012300Y005252D02*
X020512Y005252D01*
X020504Y005094D02*
X020512Y005094D01*
X020512Y005411D02*
X011972Y005411D01*
X011814Y005569D02*
X020512Y005569D01*
X020512Y005728D02*
X011618Y005728D01*
X010675Y005728D02*
X003980Y005728D01*
X003980Y005886D02*
X020512Y005886D01*
X020512Y006045D02*
X003980Y006045D01*
X003980Y006203D02*
X020512Y006203D01*
X020512Y006362D02*
X003980Y006362D01*
X003980Y006520D02*
X020512Y006520D01*
X020512Y006679D02*
X003980Y006679D01*
X003980Y006837D02*
X020512Y006837D01*
X020512Y006996D02*
X003980Y006996D01*
X003980Y007154D02*
X020512Y007154D01*
X020512Y007313D02*
X003980Y007313D01*
X003980Y007471D02*
X020512Y007471D01*
X020512Y007630D02*
X003980Y007630D01*
X003980Y007788D02*
X020512Y007788D01*
X020512Y007947D02*
X003980Y007947D01*
X004939Y005570D02*
X005108Y005640D01*
X005891Y005640D01*
X006061Y005570D01*
X006190Y005441D01*
X006260Y005271D01*
X006260Y005088D01*
X006190Y004919D01*
X006061Y004790D01*
X005891Y004720D01*
X005108Y004720D01*
X004939Y004790D01*
X004810Y004919D01*
X004740Y005088D01*
X004740Y005271D01*
X004810Y005441D01*
X004939Y005570D01*
X004938Y005569D02*
X003980Y005569D01*
X003980Y005411D02*
X004798Y005411D01*
X004740Y005252D02*
X003980Y005252D01*
X003980Y005094D02*
X004740Y005094D01*
X004804Y004935D02*
X003980Y004935D01*
X003980Y004777D02*
X004972Y004777D01*
X005016Y004625D02*
X004948Y004591D01*
X004887Y004546D01*
X004834Y004493D01*
X004789Y004432D01*
X004755Y004364D01*
X004732Y004292D01*
X004720Y004218D01*
X004720Y004200D01*
X005480Y004200D01*
X005480Y004660D01*
X005162Y004660D01*
X005088Y004648D01*
X005016Y004625D01*
X005002Y004618D02*
X003980Y004618D01*
X003980Y004460D02*
X004810Y004460D01*
X004735Y004301D02*
X003980Y004301D01*
X003980Y004143D02*
X004720Y004143D01*
X004720Y004142D02*
X004732Y004068D01*
X004755Y003996D01*
X004789Y003928D01*
X004834Y003867D01*
X004887Y003814D01*
X004948Y003769D01*
X005016Y003735D01*
X005088Y003712D01*
X005162Y003700D01*
X005480Y003700D01*
X005480Y004160D01*
X005520Y004160D01*
X005520Y004200D01*
X005480Y004200D01*
X005480Y004160D01*
X004720Y004160D01*
X004720Y004142D01*
X004761Y003984D02*
X003980Y003984D01*
X003980Y003826D02*
X004876Y003826D01*
X005480Y003826D02*
X005520Y003826D01*
X005520Y003984D02*
X005480Y003984D01*
X005480Y004143D02*
X005520Y004143D01*
X005520Y004160D02*
X005520Y003700D01*
X005838Y003700D01*
X005912Y003712D01*
X005984Y003735D01*
X006052Y003769D01*
X006113Y003814D01*
X006166Y003867D01*
X006211Y003928D01*
X006245Y003996D01*
X006268Y004068D01*
X006280Y004142D01*
X006280Y004160D01*
X005520Y004160D01*
X005520Y004200D02*
X006280Y004200D01*
X006280Y004218D01*
X006268Y004292D01*
X006245Y004364D01*
X006211Y004432D01*
X006166Y004493D01*
X006113Y004546D01*
X006052Y004591D01*
X005984Y004625D01*
X005912Y004648D01*
X005838Y004660D01*
X005520Y004660D01*
X005520Y004200D01*
X005520Y004301D02*
X005480Y004301D01*
X005480Y004460D02*
X005520Y004460D01*
X005520Y004618D02*
X005480Y004618D01*
X005998Y004618D02*
X010689Y004618D01*
X010642Y004777D02*
X006028Y004777D01*
X006196Y004935D02*
X010642Y004935D01*
X010642Y005094D02*
X006260Y005094D01*
X006260Y005252D02*
X010642Y005252D01*
X010642Y005411D02*
X006202Y005411D01*
X006062Y005569D02*
X010642Y005569D01*
X011018Y004460D02*
X006190Y004460D01*
X006265Y004301D02*
X011176Y004301D01*
X011335Y004143D02*
X006280Y004143D01*
X006239Y003984D02*
X011392Y003984D01*
X011482Y003826D02*
X006124Y003826D01*
X003980Y002082D02*
X016808Y002082D01*
X016650Y001924D02*
X003980Y001924D01*
X003980Y001765D02*
X016580Y001765D01*
X016580Y001607D02*
X003980Y001607D01*
X003980Y001448D02*
X016638Y001448D01*
X016797Y001290D02*
X003980Y001290D01*
X012018Y003826D02*
X019243Y003826D01*
X019328Y003984D02*
X012108Y003984D01*
M02*
